<svg width="20" height="42" viewBox="0 0 46 84" fill="none" xmlns="http://www.w3.org/2000/svg">
<path d="M21.0002 47.0195C11.0002 54.6195 8.16682 61.1862 8.00015 63.5195C8.00015 61.1195 9.33338 56.5195 10 54.5195C7.6 54.9195 6.66667 60.3529 6.5 63.0195C4.15518 50.5138 7.98309 43.9899 10.3364 42.1422L8.5 43.5195C3.7 43.9195 1.16667 46.3529 0.5 47.5195C0 47.0195 0 45.5195 0 43.0195C0 41.0195 3.66677 39.1862 5.50015 38.5195C4.30015 36.1195 6.33349 34.8529 7.50015 34.5195C14.7002 34.5195 20.8335 28.8529 23.0002 26.0195C23.5002 27.5195 23.5002 31.0195 23.0002 33.0195C22.5002 35.0195 20.5002 33.5195 20.0002 38.0195C19.6002 41.6195 20.5002 45.5195 21.0002 47.0195Z" fill="white"/>
<path d="M27.5 75.5195C21.5 77.5195 21.3333 81.6862 22 83.5195C18.4998 81.8529 11.1995 76.6195 9.99953 69.0195C8.79953 61.4195 12.5 58.5195 15.4995 55.5195C21.4995 50.3195 26.6662 43.3529 28.4995 40.5195C38.0995 26.1195 36.4995 10.8529 34.4995 5.01953C37.9995 7.51953 44.3711 15.9542 42.5 29.5195C40.5 44.0195 28.6662 55.8529 22.4995 60.5195C38.4995 50.9195 43.8329 37.8529 44.4995 32.5195C45.3329 36.0195 45.8995 45.2195 41.4995 54.0195C37.0995 62.8195 24.9995 69.0195 19.4995 71.0195C33.0995 67.8195 41.1662 59.0195 43.4995 55.0195C43.4995 61.0195 41.1662 65.5195 39.9995 67.0195C38.333 69.0195 33.5 73.5195 27.5 75.5195Z" fill="white"/>
<path d="M23.5 0.018852C32.3 8.81885 33.8333 20.6855 33.5 25.5189V25.7518C34.1667 21.0075 34.8 10.3189 32 5.51885C29.2 0.718852 25.1667 -0.147815 23.5 0.018852Z" fill="white"/>
</svg>
